<svg xmlns="http://www.w3.org/2000/svg" xmlns:xlink="http://www.w3.org/1999/xlink" fill="none" height="304.6" preserveAspectRatio="xMidYMid meet" style="fill: none;" version="1.0" viewBox="0.4 0.5 251.4 304.6" width="251.4" zoomAndPan="magnify" nighteye="disabled"><path clip-rule="evenodd" d="M251 44.3013L226 87.6025H176L151 44.3013L176 1L226 1L251 44.3013V44.3013Z" stroke="#000"/><path clip-rule="evenodd" d="M176 174.301L151 217.603H101L76 174.301L101 131L151 131L176 174.301V174.301Z" stroke="#000"/><path clip-rule="evenodd" d="M251 131.301L226 174.603H176L151 131.301L176 88L226 88L251 131.301V131.301Z" stroke="#000"/><path clip-rule="evenodd" d="M176 261.301L151 304.603H101L76 261.301L101 218L151 218L176 261.301V261.301Z" stroke="#000"/><path clip-rule="evenodd" d="M176 87.3013L151 130.603H101L76 87.3013L101 44L151 44L176 87.3013V87.3013Z" stroke="#000"/><path clip-rule="evenodd" d="M101 217.301L76 260.603H26L1 217.301L26 174L76 174L101 217.301V217.301Z" stroke="#000"/></svg>