<svg width="661" height="200" viewBox="0 0 661 200" fill="none" xmlns="http://www.w3.org/2000/svg">
<path fill-rule="evenodd" clip-rule="evenodd" d="M299.17 159.534C305.97 163.727 313.62 165.824 322.12 165.824C328.693 165.824 334.303 164.634 338.95 162.254C343.71 159.874 346.997 156.53 348.81 152.224H349.49V163.784H372.61V31.1836H349.49V80.1436H348.81C345.977 76.1769 342.407 73.3436 338.1 71.6436C333.907 69.8303 328.92 68.9236 323.14 68.9236C314.527 68.9236 306.707 71.0203 299.68 75.2136C292.767 79.2936 287.327 85.0736 283.36 92.5536C279.394 100.034 277.41 108.534 277.41 118.054C277.41 126.894 279.337 134.997 283.19 142.364C287.043 149.617 292.37 155.34 299.17 159.534ZM307.33 136.754C302.797 131.54 300.53 125.024 300.53 117.204C300.53 109.384 302.797 102.924 307.33 97.8236C311.864 92.6103 317.983 90.0036 325.69 90.0036C333.397 90.0036 339.517 92.6103 344.05 97.8236C348.584 102.924 350.85 109.384 350.85 117.204C350.85 125.024 348.584 131.54 344.05 136.754C339.517 141.854 333.397 144.404 325.69 144.404C317.983 144.404 311.864 141.854 307.33 136.754ZM410.444 159.874C417.698 163.84 425.744 165.824 434.584 165.824C442.064 165.824 449.261 164.464 456.174 161.744C463.201 158.91 468.868 155.114 473.174 150.354L459.574 136.584C456.061 139.53 452.264 141.627 448.184 142.874C444.218 144.12 439.684 144.744 434.584 144.744C427.784 144.744 422.004 142.874 417.244 139.134C412.484 135.28 409.878 130.35 409.424 124.344H477.934L478.274 117.374C478.274 107.74 476.518 99.2403 473.004 91.8736C469.491 84.5069 464.391 78.7836 457.704 74.7036C451.018 70.6236 443.085 68.5836 433.904 68.5836C425.178 68.5836 417.244 70.6803 410.104 74.8736C402.964 78.9536 397.298 84.7336 393.104 92.2136C388.911 99.5803 386.814 107.967 386.814 117.374C386.814 126.894 388.911 135.337 393.104 142.704C397.411 150.07 403.191 155.794 410.444 159.874ZM448.524 94.4236C452.604 97.5969 454.871 101.79 455.324 107.004H409.424C410.331 101.564 412.938 97.3136 417.244 94.2536C421.664 91.1936 427.104 89.6636 433.564 89.6636C439.571 89.6636 444.558 91.2503 448.524 94.4236ZM490.828 85.2436C501.935 74.3636 515.535 68.9236 531.628 68.9236C544.321 68.9236 554.408 72.1536 561.888 78.6136C569.368 85.0736 573.108 94.5936 573.108 107.174V163.784H549.988V150.184H549.308C545.228 155.397 540.638 159.307 535.538 161.914C530.438 164.52 524.545 165.824 517.858 165.824C512.191 165.824 506.978 164.69 502.218 162.424C497.571 160.044 493.888 156.7 491.168 152.394C488.448 148.087 487.088 143.044 487.088 137.264C487.088 128.537 490.488 121.567 497.288 116.354C504.201 111.027 513.551 108.364 525.338 108.364H549.988V105.984C549.988 100.544 548.061 96.4069 544.208 93.5736C540.355 90.7403 535.311 89.3236 529.078 89.3236C519.898 89.3236 511.795 92.6103 504.768 99.1836L490.828 85.2436ZM510.548 136.244C510.548 139.19 511.738 141.74 514.118 143.894C516.611 146.047 520.408 147.124 525.508 147.124C530.495 147.124 534.801 146.16 538.428 144.234C542.168 142.194 545.001 139.587 546.928 136.414C548.968 133.127 549.988 129.67 549.988 126.044V125.364H524.828C519.615 125.364 515.931 126.44 513.778 128.594C511.625 130.634 510.548 133.184 510.548 136.244ZM587.312 31.3164H610.594V163.768H587.312V31.3164ZM238.449 93.8376L251.188 113.125L279.214 71.2915L253.348 71.2812L238.449 93.8376ZM251.192 119.496L238.449 138.764L254.83 163.533H280.828L251.192 119.496Z" fill="#32776E"/>
<path fill-rule="evenodd" clip-rule="evenodd" d="M173.027 73.3471H149.907V163.444H173.027V73.3471ZM151.777 35.4589C149.17 38.0656 147.867 41.2389 147.867 44.9789C147.867 48.7189 149.17 51.9489 151.777 54.6689C154.497 57.2756 157.727 58.5789 161.467 58.5789C165.207 58.5789 168.38 57.2756 170.987 54.6689C173.707 51.9489 175.067 48.7189 175.067 44.9789C175.067 41.2389 173.707 38.0656 170.987 35.4589C168.38 32.7389 165.207 31.3789 161.467 31.3789C157.727 31.3789 154.497 32.7389 151.777 35.4589ZM135.7 35.9471H57.5V163.431H81.3V115.507H131.62V94.4271H81.3V57.0271H135.7V35.9471ZM184.88 71.2915L215.042 116.315L183.266 163.533H209.264L240.491 116.315L210.746 71.2812L184.88 71.2915Z" fill="#B6760A"/>
</svg>
