<svg width="252" height="345" viewBox="0 0 252 345" fill="none" xmlns="http://www.w3.org/2000/svg">
<g opacity="0.3">
<line y1="-1" x2="10.5325" y2="-1" transform="matrix(0.342037 -0.939686 0.939699 0.342003 172.662 11.0488)" stroke="#B9E1CE" stroke-width="2"/>
<line y1="-1" x2="10.5325" y2="-1" transform="matrix(0.500022 -0.866012 0.866038 0.499978 195.114 10.7202)" stroke="#B9E1CE" stroke-width="2"/>
<line y1="-1" x2="10.5326" y2="-1" transform="matrix(0.64281 -0.766026 0.766063 0.642765 217.686 10.3906)" stroke="#B9E1CE" stroke-width="2"/>
<line y1="-1" x2="10.5328" y2="-1" transform="matrix(0.766063 -0.642765 0.64281 0.766026 240.409 9.73242)" stroke="#B9E1CE" stroke-width="2"/>
<line y1="-1" x2="10.5328" y2="-1" transform="matrix(-0.766063 -0.642766 0.64281 -0.766026 15.5188 9.73242)" stroke="#B9E1CE" stroke-width="2"/>
<line y1="-1" x2="10.5326" y2="-1" transform="matrix(-0.64281 -0.766026 0.766063 -0.642766 38.2453 10.3906)" stroke="#B9E1CE" stroke-width="2"/>
<line y1="-1" x2="10.5325" y2="-1" transform="matrix(-0.500022 -0.866013 0.866038 -0.499978 60.8165 10.7202)" stroke="#B9E1CE" stroke-width="2"/>
<line y1="-1" x2="10.5325" y2="-1" transform="matrix(-0.342038 -0.939686 0.939699 -0.342002 83.2689 11.0488)" stroke="#B9E1CE" stroke-width="2"/>
<line y1="-1" x2="10.5324" y2="-1" transform="matrix(-0.173658 -0.984806 0.98481 -0.173638 105.639 11.3782)" stroke="#B9E1CE" stroke-width="2"/>
<line x1="126.965" y1="11.3782" x2="126.965" y2="0.845783" stroke="#B9E1CE" stroke-width="2"/>
<line y1="-1" x2="10.5324" y2="-1" transform="matrix(0.173657 -0.984806 0.984809 0.173639 150.292 11.3782)" stroke="#B9E1CE" stroke-width="2"/>
<line y1="-1" x2="10.5325" y2="-1" transform="matrix(0.342039 -0.939686 0.939699 0.342002 148.964 29.4807)" stroke="#B9E1CE" stroke-width="2"/>
<line y1="-1" x2="10.5325" y2="-1" transform="matrix(0.500022 -0.866012 0.866038 0.499978 171.413 29.1514)" stroke="#B9E1CE" stroke-width="2"/>
<line y1="-1" x2="10.5326" y2="-1" transform="matrix(0.64281 -0.766026 0.766063 0.642765 193.985 28.8228)" stroke="#B9E1CE" stroke-width="2"/>
<line y1="-1" x2="10.5327" y2="-1" transform="matrix(0.766063 -0.642766 0.642809 0.766026 216.711 28.1646)" stroke="#B9E1CE" stroke-width="2"/>
<line y1="-1" x2="10.5328" y2="-1" transform="matrix(0.866038 -0.499978 0.500022 0.866013 239.619 27.177)" stroke="#B9E1CE" stroke-width="2"/>
<line y1="-1" x2="10.5326" y2="-1" transform="matrix(-0.64281 -0.766026 0.766063 -0.642766 14.5476 28.8228)" stroke="#B9E1CE" stroke-width="2"/>
<line y1="-1" x2="10.5325" y2="-1" transform="matrix(-0.500022 -0.866013 0.866038 -0.499978 37.1189 29.1514)" stroke="#B9E1CE" stroke-width="2"/>
<line y1="-1" x2="10.5325" y2="-1" transform="matrix(-0.342038 -0.939686 0.939699 -0.342002 59.5679 29.4807)" stroke="#B9E1CE" stroke-width="2"/>
<line y1="-1" x2="10.5324" y2="-1" transform="matrix(-0.173658 -0.984806 0.98481 -0.173638 81.9377 29.8096)" stroke="#B9E1CE" stroke-width="2"/>
<line x1="103.264" y1="29.8096" x2="103.264" y2="19.2772" stroke="#B9E1CE" stroke-width="2"/>
<line y1="-1" x2="10.5324" y2="-1" transform="matrix(0.173658 -0.984806 0.98481 0.173638 126.595 29.8096)" stroke="#B9E1CE" stroke-width="2"/>
<line y1="-1" x2="10.5325" y2="-1" transform="matrix(0.342039 -0.939686 0.939699 0.342002 125.263 47.9128)" stroke="#B9E1CE" stroke-width="2"/>
<line y1="-1" x2="10.5325" y2="-1" transform="matrix(0.500021 -0.866013 0.866038 0.499979 147.716 47.5833)" stroke="#B9E1CE" stroke-width="2"/>
<line y1="-1" x2="10.5326" y2="-1" transform="matrix(0.642809 -0.766026 0.766063 0.642766 170.287 47.2539)" stroke="#B9E1CE" stroke-width="2"/>
<line y1="-1" x2="10.5328" y2="-1" transform="matrix(0.766063 -0.642765 0.64281 0.766026 193.013 46.5957)" stroke="#B9E1CE" stroke-width="2"/>
<line y1="-1" x2="10.5329" y2="-1" transform="matrix(0.866038 -0.499978 0.500022 0.866013 215.922 45.6082)" stroke="#B9E1CE" stroke-width="2"/>
<line y1="-1" x2="10.5329" y2="-1" transform="matrix(0.939699 -0.342003 0.342037 0.939686 239.038 44.95)" stroke="#B9E1CE" stroke-width="2"/>
<line y1="-1" x2="10.5325" y2="-1" transform="matrix(-0.500022 -0.866013 0.866038 -0.499978 13.4179 47.5833)" stroke="#B9E1CE" stroke-width="2"/>
<line y1="-1" x2="10.5325" y2="-1" transform="matrix(-0.342038 -0.939686 0.939699 -0.342003 35.8702 47.9128)" stroke="#B9E1CE" stroke-width="2"/>
<line y1="-1" x2="10.5324" y2="-1" transform="matrix(-0.173658 -0.984806 0.984809 -0.173638 58.24 48.2415)" stroke="#B9E1CE" stroke-width="2"/>
<line x1="79.5668" y1="48.2415" x2="79.5668" y2="37.7091" stroke="#B9E1CE" stroke-width="2"/>
<line y1="-1" x2="10.5324" y2="-1" transform="matrix(0.173658 -0.984806 0.984809 0.173639 102.894 48.2415)" stroke="#B9E1CE" stroke-width="2"/>
<line y1="-1" x2="10.5325" y2="-1" transform="matrix(0.342038 -0.939686 0.939699 0.342002 101.566 66.344)" stroke="#B9E1CE" stroke-width="2"/>
<line y1="-1" x2="10.5325" y2="-1" transform="matrix(0.500022 -0.866013 0.866038 0.499978 124.015 66.0154)" stroke="#B9E1CE" stroke-width="2"/>
<line y1="-1" x2="10.5326" y2="-1" transform="matrix(0.64281 -0.766025 0.766063 0.642765 146.586 65.6858)" stroke="#B9E1CE" stroke-width="2"/>
<line y1="-1" x2="10.5328" y2="-1" transform="matrix(0.766063 -0.642765 0.64281 0.766026 169.312 65.0278)" stroke="#B9E1CE" stroke-width="2"/>
<line y1="-1" x2="10.5328" y2="-1" transform="matrix(0.866038 -0.499979 0.500021 0.866013 192.224 64.04)" stroke="#B9E1CE" stroke-width="2"/>
<line y1="-1" x2="10.5329" y2="-1" transform="matrix(0.939699 -0.342002 0.342038 0.939686 215.34 63.3818)" stroke="#B9E1CE" stroke-width="2"/>
<line y1="-1" x2="10.533" y2="-1" transform="matrix(0.98481 -0.173638 0.173658 0.984806 238.685 62.3943)" stroke="#B9E1CE" stroke-width="2"/>
<line y1="-1" x2="10.5325" y2="-1" transform="matrix(-0.342038 -0.939686 0.939699 -0.342002 12.1693 66.344)" stroke="#B9E1CE" stroke-width="2"/>
<line y1="-1" x2="10.5324" y2="-1" transform="matrix(-0.173658 -0.984806 0.984809 -0.173638 34.539 66.6736)" stroke="#B9E1CE" stroke-width="2"/>
<line x1="55.8658" y1="66.6736" x2="55.8658" y2="56.1412" stroke="#B9E1CE" stroke-width="2"/>
<line y1="-1" x2="10.5324" y2="-1" transform="matrix(0.173658 -0.984806 0.98481 0.173638 79.1959 66.6736)" stroke="#B9E1CE" stroke-width="2"/>
<line y1="-1" x2="10.5325" y2="-1" transform="matrix(0.342038 -0.939686 0.939699 0.342002 77.8647 84.7759)" stroke="#B9E1CE" stroke-width="2"/>
<line y1="-1" x2="10.5325" y2="-1" transform="matrix(0.500022 -0.866013 0.866038 0.499978 100.317 84.4465)" stroke="#B9E1CE" stroke-width="2"/>
<line y1="-1" x2="10.5326" y2="-1" transform="matrix(0.642809 -0.766026 0.766063 0.642766 122.888 84.1179)" stroke="#B9E1CE" stroke-width="2"/>
<line y1="-1" x2="10.5328" y2="-1" transform="matrix(0.766063 -0.642765 0.64281 0.766026 145.615 83.459)" stroke="#B9E1CE" stroke-width="2"/>
<line y1="-1" x2="10.5328" y2="-1" transform="matrix(0.866038 -0.499979 0.500021 0.866013 168.523 82.4722)" stroke="#B9E1CE" stroke-width="2"/>
<line y1="-1" x2="10.5329" y2="-1" transform="matrix(0.939699 -0.342003 0.342037 0.939686 191.639 81.8132)" stroke="#B9E1CE" stroke-width="2"/>
<line y1="-1" x2="10.533" y2="-1" transform="matrix(0.984809 -0.173639 0.173658 0.984806 214.984 80.8264)" stroke="#B9E1CE" stroke-width="2"/>
<line y1="-1" x2="10.5324" y2="-1" transform="matrix(-0.173658 -0.984806 0.984809 -0.173638 10.8413 85.1047)" stroke="#B9E1CE" stroke-width="2"/>
<line x1="32.1682" y1="85.1047" x2="32.1682" y2="74.5723" stroke="#B9E1CE" stroke-width="2"/>
<line y1="-1" x2="10.5324" y2="-1" transform="matrix(0.173658 -0.984806 0.98481 0.173638 55.495 85.1047)" stroke="#B9E1CE" stroke-width="2"/>
<line x1="251.729" y1="80.8386" x2="241.196" y2="80.8386" stroke="#B9E1CE" stroke-width="2"/>
<line y1="-1" x2="10.5325" y2="-1" transform="matrix(0.342038 -0.939686 0.939699 0.342002 54.1671 103.207)" stroke="#B9E1CE" stroke-width="2"/>
<line y1="-1" x2="10.5325" y2="-1" transform="matrix(0.500022 -0.866013 0.866038 0.499978 76.6161 102.878)" stroke="#B9E1CE" stroke-width="2"/>
<line y1="-1" x2="10.5326" y2="-1" transform="matrix(0.64281 -0.766026 0.766063 0.642765 99.1873 102.549)" stroke="#B9E1CE" stroke-width="2"/>
<line y1="-1" x2="10.5327" y2="-1" transform="matrix(0.766063 -0.642766 0.64281 0.766026 121.914 101.891)" stroke="#B9E1CE" stroke-width="2"/>
<line y1="-1" x2="10.5328" y2="-1" transform="matrix(0.866038 -0.499978 0.500022 0.866013 144.825 100.903)" stroke="#B9E1CE" stroke-width="2"/>
<line y1="-1" x2="10.5329" y2="-1" transform="matrix(0.939699 -0.342003 0.342038 0.939686 167.942 100.245)" stroke="#B9E1CE" stroke-width="2"/>
<line y1="-1" x2="10.533" y2="-1" transform="matrix(0.98481 -0.173638 0.173658 0.984806 191.286 99.2576)" stroke="#B9E1CE" stroke-width="2"/>
<line x1="8.46716" y1="103.537" x2="8.46716" y2="93.0042" stroke="#B9E1CE" stroke-width="2"/>
<line y1="-1" x2="10.5324" y2="-1" transform="matrix(0.173658 -0.984806 0.984809 0.173638 31.7973 103.537)" stroke="#B9E1CE" stroke-width="2"/>
<line x1="228.028" y1="99.2708" x2="217.495" y2="99.2708" stroke="#B9E1CE" stroke-width="2"/>
<line y1="-1" x2="10.533" y2="-1" transform="matrix(-0.98481 -0.173638 0.173658 -0.984806 251.61 99.2576)" stroke="#B9E1CE" stroke-width="2"/>
<line y1="-1" x2="10.5325" y2="-1" transform="matrix(0.342038 -0.939686 0.939699 0.342002 30.4661 121.639)" stroke="#B9E1CE" stroke-width="2"/>
<line y1="-1" x2="10.5325" y2="-1" transform="matrix(0.500022 -0.866013 0.866038 0.499978 52.9184 121.31)" stroke="#B9E1CE" stroke-width="2"/>
<line y1="-1" x2="10.5326" y2="-1" transform="matrix(0.64281 -0.766026 0.766063 0.642765 75.4897 120.981)" stroke="#B9E1CE" stroke-width="2"/>
<line y1="-1" x2="10.5327" y2="-1" transform="matrix(0.766063 -0.642766 0.64281 0.766026 98.2162 120.323)" stroke="#B9E1CE" stroke-width="2"/>
<line y1="-1" x2="10.5328" y2="-1" transform="matrix(0.866038 -0.499978 0.500022 0.866013 121.124 119.335)" stroke="#B9E1CE" stroke-width="2"/>
<line y1="-1" x2="10.5329" y2="-1" transform="matrix(0.939699 -0.342003 0.342038 0.939686 144.241 118.677)" stroke="#B9E1CE" stroke-width="2"/>
<line y1="-1" x2="10.533" y2="-1" transform="matrix(0.98481 -0.173638 0.173658 0.984806 167.585 117.689)" stroke="#B9E1CE" stroke-width="2"/>
<line y1="-1" x2="10.5324" y2="-1" transform="matrix(0.173658 -0.984806 0.984809 0.173638 8.09631 121.969)" stroke="#B9E1CE" stroke-width="2"/>
<line x1="204.331" y1="117.702" x2="193.798" y2="117.702" stroke="#B9E1CE" stroke-width="2"/>
<line y1="-1" x2="10.533" y2="-1" transform="matrix(-0.98481 -0.173638 0.173658 -0.984806 227.909 117.689)" stroke="#B9E1CE" stroke-width="2"/>
<line y1="-1" x2="10.5329" y2="-1" transform="matrix(-0.939699 -0.342003 0.342038 -0.939686 251.253 118.677)" stroke="#B9E1CE" stroke-width="2"/>
<line y1="-1" x2="10.5325" y2="-1" transform="matrix(0.342038 -0.939686 0.939699 0.342003 6.7684 140.071)" stroke="#B9E1CE" stroke-width="2"/>
<line y1="-1" x2="10.5325" y2="-1" transform="matrix(0.500022 -0.866013 0.866038 0.499978 29.2174 139.742)" stroke="#B9E1CE" stroke-width="2"/>
<line y1="-1" x2="10.5326" y2="-1" transform="matrix(0.642809 -0.766026 0.766063 0.642766 51.7887 139.412)" stroke="#B9E1CE" stroke-width="2"/>
<line y1="-1" x2="10.5327" y2="-1" transform="matrix(0.766063 -0.642765 0.64281 0.766026 74.5152 138.754)" stroke="#B9E1CE" stroke-width="2"/>
<line y1="-1" x2="10.5329" y2="-1" transform="matrix(0.866038 -0.499979 0.500021 0.866013 97.4267 137.767)" stroke="#B9E1CE" stroke-width="2"/>
<line y1="-1" x2="10.5329" y2="-1" transform="matrix(0.939699 -0.342003 0.342037 0.939686 120.543 137.108)" stroke="#B9E1CE" stroke-width="2"/>
<line y1="-1" x2="10.533" y2="-1" transform="matrix(0.984809 -0.173639 0.173658 0.984806 143.887 136.122)" stroke="#B9E1CE" stroke-width="2"/>
<line y1="-1" x2="10.5329" y2="-1" transform="matrix(-0.866038 -0.499979 0.500022 -0.866013 250.672 137.767)" stroke="#B9E1CE" stroke-width="2"/>
<line x1="180.633" y1="136.134" x2="170.1" y2="136.134" stroke="#B9E1CE" stroke-width="2"/>
<line y1="-1" x2="10.533" y2="-1" transform="matrix(-0.984809 -0.173639 0.173658 -0.984806 204.212 136.122)" stroke="#B9E1CE" stroke-width="2"/>
<line y1="-1" x2="10.5329" y2="-1" transform="matrix(-0.939699 -0.342003 0.342038 -0.939686 227.552 137.108)" stroke="#B9E1CE" stroke-width="2"/>
<line y1="-1" x2="10.5325" y2="-1" transform="matrix(0.500022 -0.866013 0.866038 0.499978 5.51978 158.174)" stroke="#B9E1CE" stroke-width="2"/>
<line y1="-1" x2="10.5326" y2="-1" transform="matrix(0.642809 -0.766026 0.766063 0.642766 28.091 157.844)" stroke="#B9E1CE" stroke-width="2"/>
<line y1="-1" x2="10.5327" y2="-1" transform="matrix(0.766063 -0.642765 0.64281 0.766026 50.8175 157.186)" stroke="#B9E1CE" stroke-width="2"/>
<line y1="-1" x2="10.5329" y2="-1" transform="matrix(0.866038 -0.499979 0.500021 0.866013 73.7257 156.198)" stroke="#B9E1CE" stroke-width="2"/>
<line y1="-1" x2="10.5329" y2="-1" transform="matrix(0.939699 -0.342003 0.342037 0.939686 96.842 155.54)" stroke="#B9E1CE" stroke-width="2"/>
<line y1="-1" x2="10.533" y2="-1" transform="matrix(0.984809 -0.173639 0.173658 0.984806 120.186 154.553)" stroke="#B9E1CE" stroke-width="2"/>
<line y1="-1" x2="10.5329" y2="-1" transform="matrix(-0.866038 -0.499979 0.500022 -0.866013 226.971 156.198)" stroke="#B9E1CE" stroke-width="2"/>
<line y1="-1" x2="10.5327" y2="-1" transform="matrix(-0.766063 -0.642766 0.64281 -0.766026 249.883 157.186)" stroke="#B9E1CE" stroke-width="2"/>
<line x1="156.932" y1="154.565" x2="146.399" y2="154.565" stroke="#B9E1CE" stroke-width="2"/>
<line y1="-1" x2="10.533" y2="-1" transform="matrix(-0.984809 -0.173639 0.173658 -0.984806 180.511 154.553)" stroke="#B9E1CE" stroke-width="2"/>
<line y1="-1" x2="10.5329" y2="-1" transform="matrix(-0.939699 -0.342003 0.342037 -0.939686 203.855 155.54)" stroke="#B9E1CE" stroke-width="2"/>
<line y1="-1" x2="10.5326" y2="-1" transform="matrix(0.642809 -0.766026 0.766063 0.642766 4.39005 176.276)" stroke="#B9E1CE" stroke-width="2"/>
<line y1="-1" x2="10.5327" y2="-1" transform="matrix(0.766063 -0.642765 0.64281 0.766026 27.1165 175.617)" stroke="#B9E1CE" stroke-width="2"/>
<line y1="-1" x2="10.5329" y2="-1" transform="matrix(0.866038 -0.499979 0.500021 0.866013 50.028 174.63)" stroke="#B9E1CE" stroke-width="2"/>
<line y1="-1" x2="10.5329" y2="-1" transform="matrix(0.939699 -0.342003 0.342037 0.939686 73.1443 173.972)" stroke="#B9E1CE" stroke-width="2"/>
<line y1="-1" x2="10.533" y2="-1" transform="matrix(0.984809 -0.173639 0.173658 0.984806 96.4886 172.985)" stroke="#B9E1CE" stroke-width="2"/>
<line y1="-1" x2="10.5329" y2="-1" transform="matrix(-0.866038 -0.499979 0.500022 -0.866013 203.273 174.63)" stroke="#B9E1CE" stroke-width="2"/>
<line y1="-1" x2="10.5327" y2="-1" transform="matrix(-0.766063 -0.642766 0.64281 -0.766026 226.182 175.617)" stroke="#B9E1CE" stroke-width="2"/>
<line y1="-1" x2="10.5327" y2="-1" transform="matrix(-0.64281 -0.766026 0.766063 -0.642765 248.908 176.276)" stroke="#B9E1CE" stroke-width="2"/>
<line x1="133.234" y1="172.997" x2="122.701" y2="172.997" stroke="#B9E1CE" stroke-width="2"/>
<line y1="-1" x2="10.533" y2="-1" transform="matrix(-0.984809 -0.173639 0.173657 -0.984806 156.813 172.985)" stroke="#B9E1CE" stroke-width="2"/>
<line y1="-1" x2="10.5329" y2="-1" transform="matrix(-0.939699 -0.342003 0.342037 -0.939686 180.157 173.972)" stroke="#B9E1CE" stroke-width="2"/>
<line y1="-1" x2="10.5327" y2="-1" transform="matrix(0.766063 -0.642765 0.64281 0.766026 3.41888 194.049)" stroke="#B9E1CE" stroke-width="2"/>
<line y1="-1" x2="10.5328" y2="-1" transform="matrix(0.866038 -0.499978 0.500022 0.866013 26.3271 193.062)" stroke="#B9E1CE" stroke-width="2"/>
<line y1="-1" x2="10.5329" y2="-1" transform="matrix(0.939699 -0.342003 0.342037 0.939686 49.4434 192.404)" stroke="#B9E1CE" stroke-width="2"/>
<line y1="-1" x2="10.533" y2="-1" transform="matrix(0.984809 -0.173639 0.173658 0.984806 72.7876 191.416)" stroke="#B9E1CE" stroke-width="2"/>
<line y1="-1" x2="10.5329" y2="-1" transform="matrix(-0.866038 -0.499977 0.500023 -0.866012 179.572 193.062)" stroke="#B9E1CE" stroke-width="2"/>
<line y1="-1" x2="10.5328" y2="-1" transform="matrix(-0.766064 -0.642765 0.64281 -0.766025 202.484 194.049)" stroke="#B9E1CE" stroke-width="2"/>
<line y1="-1" x2="10.5327" y2="-1" transform="matrix(-0.64281 -0.766026 0.766063 -0.642765 225.207 194.708)" stroke="#B9E1CE" stroke-width="2"/>
<line y1="-1" x2="10.5326" y2="-1" transform="matrix(-0.500022 -0.866013 0.866038 -0.499978 247.782 195.037)" stroke="#B9E1CE" stroke-width="2"/>
<line x1="109.533" y1="191.429" x2="99.0002" y2="191.429" stroke="#B9E1CE" stroke-width="2"/>
<line y1="-1" x2="10.533" y2="-1" transform="matrix(-0.984809 -0.173639 0.173658 -0.984806 133.112 191.416)" stroke="#B9E1CE" stroke-width="2"/>
<line y1="-1" x2="10.5329" y2="-1" transform="matrix(-0.939699 -0.342003 0.342037 -0.939686 156.456 192.404)" stroke="#B9E1CE" stroke-width="2"/>
<line y1="-1" x2="10.5328" y2="-1" transform="matrix(0.866038 -0.499978 0.500022 0.866013 2.62939 211.494)" stroke="#B9E1CE" stroke-width="2"/>
<line y1="-1" x2="10.5329" y2="-1" transform="matrix(0.939699 -0.342003 0.342037 0.939686 25.7457 210.835)" stroke="#B9E1CE" stroke-width="2"/>
<line y1="-1" x2="10.533" y2="-1" transform="matrix(0.984809 -0.173639 0.173658 0.984806 49.0899 209.848)" stroke="#B9E1CE" stroke-width="2"/>
<line y1="-1" x2="10.5328" y2="-1" transform="matrix(-0.866038 -0.499978 0.500022 -0.866013 155.875 211.494)" stroke="#B9E1CE" stroke-width="2"/>
<line y1="-1" x2="10.5327" y2="-1" transform="matrix(-0.766063 -0.642766 0.64281 -0.766026 178.783 212.481)" stroke="#B9E1CE" stroke-width="2"/>
<line y1="-1" x2="10.5327" y2="-1" transform="matrix(-0.64281 -0.766026 0.766063 -0.642765 201.509 213.139)" stroke="#B9E1CE" stroke-width="2"/>
<line y1="-1" x2="10.5326" y2="-1" transform="matrix(-0.500022 -0.866013 0.866038 -0.499978 224.081 213.468)" stroke="#B9E1CE" stroke-width="2"/>
<line y1="-1" x2="10.5325" y2="-1" transform="matrix(-0.342037 -0.939686 0.939699 -0.342003 246.533 213.798)" stroke="#B9E1CE" stroke-width="2"/>
<line x1="85.8355" y1="209.86" x2="75.3025" y2="209.86" stroke="#B9E1CE" stroke-width="2"/>
<line y1="-1" x2="10.533" y2="-1" transform="matrix(-0.984809 -0.173639 0.173658 -0.984806 109.414 209.848)" stroke="#B9E1CE" stroke-width="2"/>
<line y1="-1" x2="10.5329" y2="-1" transform="matrix(-0.939699 -0.342003 0.342037 -0.939686 132.758 210.835)" stroke="#B9E1CE" stroke-width="2"/>
<line y1="-1" x2="10.5329" y2="-1" transform="matrix(0.939699 -0.342003 0.342037 0.939686 2.04474 229.267)" stroke="#B9E1CE" stroke-width="2"/>
<line y1="-1" x2="10.533" y2="-1" transform="matrix(0.984809 -0.173639 0.173658 0.984806 25.3889 228.28)" stroke="#B9E1CE" stroke-width="2"/>
<line y1="-1" x2="10.5328" y2="-1" transform="matrix(-0.866038 -0.499978 0.500022 -0.866013 132.174 229.926)" stroke="#B9E1CE" stroke-width="2"/>
<line y1="-1" x2="10.5328" y2="-1" transform="matrix(-0.766063 -0.642766 0.64281 -0.766026 155.085 230.913)" stroke="#B9E1CE" stroke-width="2"/>
<line y1="-1" x2="10.5326" y2="-1" transform="matrix(-0.642809 -0.766026 0.766062 -0.642766 177.812 231.571)" stroke="#B9E1CE" stroke-width="2"/>
<line y1="-1" x2="10.5325" y2="-1" transform="matrix(-0.500021 -0.866013 0.866038 -0.499979 200.383 231.9)" stroke="#B9E1CE" stroke-width="2"/>
<line y1="-1" x2="10.5325" y2="-1" transform="matrix(-0.342037 -0.939686 0.939699 -0.342003 222.832 232.229)" stroke="#B9E1CE" stroke-width="2"/>
<line y1="-1" x2="10.5324" y2="-1" transform="matrix(-0.173658 -0.984806 0.98481 -0.173638 245.202 232.558)" stroke="#B9E1CE" stroke-width="2"/>
<line x1="62.1346" y1="228.292" x2="51.6015" y2="228.292" stroke="#B9E1CE" stroke-width="2"/>
<line y1="-1" x2="10.533" y2="-1" transform="matrix(-0.984809 -0.173639 0.173658 -0.984806 85.7133 228.28)" stroke="#B9E1CE" stroke-width="2"/>
<line y1="-1" x2="10.5329" y2="-1" transform="matrix(-0.939699 -0.342003 0.342037 -0.939686 109.058 229.267)" stroke="#B9E1CE" stroke-width="2"/>
<line y1="-1" x2="10.533" y2="-1" transform="matrix(0.984809 -0.173639 0.173658 0.984806 1.69128 246.711)" stroke="#B9E1CE" stroke-width="2"/>
<line y1="-1" x2="10.5328" y2="-1" transform="matrix(-0.866038 -0.499978 0.500022 -0.866013 108.476 248.357)" stroke="#B9E1CE" stroke-width="2"/>
<line y1="-1" x2="10.5328" y2="-1" transform="matrix(-0.766063 -0.642766 0.64281 -0.766026 131.384 249.344)" stroke="#B9E1CE" stroke-width="2"/>
<line y1="-1" x2="10.5326" y2="-1" transform="matrix(-0.642809 -0.766026 0.766062 -0.642766 154.111 250.003)" stroke="#B9E1CE" stroke-width="2"/>
<line y1="-1" x2="10.5325" y2="-1" transform="matrix(-0.500021 -0.866013 0.866038 -0.499979 176.682 250.332)" stroke="#B9E1CE" stroke-width="2"/>
<line y1="-1" x2="10.5325" y2="-1" transform="matrix(-0.342038 -0.939686 0.939699 -0.342002 199.134 250.661)" stroke="#B9E1CE" stroke-width="2"/>
<line y1="-1" x2="10.5324" y2="-1" transform="matrix(-0.173658 -0.984806 0.98481 -0.173638 221.504 250.99)" stroke="#B9E1CE" stroke-width="2"/>
<line x1="242.831" y1="250.99" x2="242.831" y2="240.458" stroke="#B9E1CE" stroke-width="2"/>
<line x1="38.4369" y1="246.723" x2="27.9039" y2="246.723" stroke="#B9E1CE" stroke-width="2"/>
<line y1="-1" x2="10.533" y2="-1" transform="matrix(-0.984809 -0.173639 0.173658 -0.984806 62.0156 246.711)" stroke="#B9E1CE" stroke-width="2"/>
<line y1="-1" x2="10.5329" y2="-1" transform="matrix(-0.939699 -0.342003 0.342037 -0.939686 85.3599 247.699)" stroke="#B9E1CE" stroke-width="2"/>
<line y1="-1" x2="10.5329" y2="-1" transform="matrix(-0.866038 -0.499979 0.500021 -0.866013 84.7752 266.789)" stroke="#B9E1CE" stroke-width="2"/>
<line y1="-1" x2="10.5327" y2="-1" transform="matrix(-0.766063 -0.642765 0.64281 -0.766026 107.687 267.776)" stroke="#B9E1CE" stroke-width="2"/>
<line y1="-1" x2="10.5326" y2="-1" transform="matrix(-0.642811 -0.766025 0.766064 -0.642765 130.413 268.435)" stroke="#B9E1CE" stroke-width="2"/>
<line y1="-1" x2="10.5325" y2="-1" transform="matrix(-0.500022 -0.866013 0.866038 -0.499978 152.984 268.763)" stroke="#B9E1CE" stroke-width="2"/>
<line y1="-1" x2="10.5325" y2="-1" transform="matrix(-0.342037 -0.939686 0.939699 -0.342003 175.433 269.093)" stroke="#B9E1CE" stroke-width="2"/>
<line y1="-1" x2="10.5324" y2="-1" transform="matrix(-0.173658 -0.984806 0.98481 -0.173638 197.803 269.421)" stroke="#B9E1CE" stroke-width="2"/>
<line x1="219.13" y1="269.421" x2="219.13" y2="258.889" stroke="#B9E1CE" stroke-width="2"/>
<line y1="-1" x2="10.5324" y2="-1" transform="matrix(0.173658 -0.984806 0.98481 0.173638 242.46 269.421)" stroke="#B9E1CE" stroke-width="2"/>
<line x1="14.7359" y1="265.156" x2="4.2029" y2="265.156" stroke="#B9E1CE" stroke-width="2"/>
<line y1="-1" x2="10.533" y2="-1" transform="matrix(-0.98481 -0.173637 0.173659 -0.984806 38.3146 265.143)" stroke="#B9E1CE" stroke-width="2"/>
<line y1="-1" x2="10.5329" y2="-1" transform="matrix(-0.939699 -0.342003 0.342037 -0.939686 61.6589 266.131)" stroke="#B9E1CE" stroke-width="2"/>
<line y1="-1" x2="10.5325" y2="-1" transform="matrix(0.342037 -0.939686 0.939699 0.342003 241.129 287.524)" stroke="#B9E1CE" stroke-width="2"/>
<line y1="-1" x2="10.5329" y2="-1" transform="matrix(-0.866038 -0.499979 0.500021 -0.866013 61.0775 285.22)" stroke="#B9E1CE" stroke-width="2"/>
<line y1="-1" x2="10.5327" y2="-1" transform="matrix(-0.766063 -0.642765 0.64281 -0.766026 83.9857 286.208)" stroke="#B9E1CE" stroke-width="2"/>
<line y1="-1" x2="10.5327" y2="-1" transform="matrix(-0.642809 -0.766027 0.766062 -0.642766 106.712 286.866)" stroke="#B9E1CE" stroke-width="2"/>
<line y1="-1" x2="10.5325" y2="-1" transform="matrix(-0.500022 -0.866013 0.866038 -0.499978 129.283 287.195)" stroke="#B9E1CE" stroke-width="2"/>
<line y1="-1" x2="10.5325" y2="-1" transform="matrix(-0.342038 -0.939686 0.939699 -0.342002 151.736 287.524)" stroke="#B9E1CE" stroke-width="2"/>
<line y1="-1" x2="10.5324" y2="-1" transform="matrix(-0.173658 -0.984806 0.98481 -0.173638 174.106 287.854)" stroke="#B9E1CE" stroke-width="2"/>
<line x1="195.432" y1="287.854" x2="195.432" y2="277.321" stroke="#B9E1CE" stroke-width="2"/>
<line y1="-1" x2="10.5324" y2="-1" transform="matrix(0.173658 -0.984806 0.98481 0.173638 218.759 287.854)" stroke="#B9E1CE" stroke-width="2"/>
<line y1="-1" x2="10.533" y2="-1" transform="matrix(-0.98481 -0.173637 0.173659 -0.984806 14.617 283.574)" stroke="#B9E1CE" stroke-width="2"/>
<line y1="-1" x2="10.5329" y2="-1" transform="matrix(-0.939699 -0.342003 0.342037 -0.939686 37.9612 284.562)" stroke="#B9E1CE" stroke-width="2"/>
<line y1="-1" x2="10.5325" y2="-1" transform="matrix(0.342038 -0.939686 0.939699 0.342002 217.431 305.956)" stroke="#B9E1CE" stroke-width="2"/>
<line y1="-1" x2="10.5325" y2="-1" transform="matrix(0.500023 -0.866012 0.866039 0.499977 239.88 305.626)" stroke="#B9E1CE" stroke-width="2"/>
<line y1="-1" x2="10.5329" y2="-1" transform="matrix(-0.866038 -0.499979 0.500021 -0.866013 37.3765 303.652)" stroke="#B9E1CE" stroke-width="2"/>
<line y1="-1" x2="10.5327" y2="-1" transform="matrix(-0.766063 -0.642765 0.64281 -0.766026 60.288 304.64)" stroke="#B9E1CE" stroke-width="2"/>
<line y1="-1" x2="10.5327" y2="-1" transform="matrix(-0.642809 -0.766027 0.766062 -0.642766 83.0145 305.298)" stroke="#B9E1CE" stroke-width="2"/>
<line y1="-1" x2="10.5325" y2="-1" transform="matrix(-0.500022 -0.866013 0.866038 -0.499978 105.586 305.626)" stroke="#B9E1CE" stroke-width="2"/>
<line y1="-1" x2="10.5325" y2="-1" transform="matrix(-0.342038 -0.939686 0.939699 -0.342003 128.035 305.956)" stroke="#B9E1CE" stroke-width="2"/>
<line y1="-1" x2="10.5324" y2="-1" transform="matrix(-0.173658 -0.984806 0.98481 -0.173638 150.405 306.285)" stroke="#B9E1CE" stroke-width="2"/>
<line x1="171.731" y1="306.285" x2="171.731" y2="295.753" stroke="#B9E1CE" stroke-width="2"/>
<line y1="-1" x2="10.5324" y2="-1" transform="matrix(0.173657 -0.984806 0.984809 0.173639 195.062 306.285)" stroke="#B9E1CE" stroke-width="2"/>
<line y1="-1" x2="10.5329" y2="-1" transform="matrix(-0.939699 -0.342003 0.342037 -0.939686 14.2602 302.994)" stroke="#B9E1CE" stroke-width="2"/>
<line y1="-1" x2="10.5325" y2="-1" transform="matrix(0.342037 -0.939686 0.939699 0.342003 193.73 324.388)" stroke="#B9E1CE" stroke-width="2"/>
<line y1="-1" x2="10.5325" y2="-1" transform="matrix(0.500023 -0.866012 0.866039 0.499977 216.183 324.059)" stroke="#B9E1CE" stroke-width="2"/>
<line y1="-1" x2="10.5327" y2="-1" transform="matrix(0.642809 -0.766026 0.766063 0.642766 238.754 323.729)" stroke="#B9E1CE" stroke-width="2"/>
<line y1="-1" x2="10.5329" y2="-1" transform="matrix(-0.866038 -0.499979 0.500021 -0.866013 13.6788 322.084)" stroke="#B9E1CE" stroke-width="2"/>
<line y1="-1" x2="10.5327" y2="-1" transform="matrix(-0.766063 -0.642765 0.64281 -0.766026 36.587 323.071)" stroke="#B9E1CE" stroke-width="2"/>
<line y1="-1" x2="10.5327" y2="-1" transform="matrix(-0.642809 -0.766027 0.766062 -0.642766 59.3135 323.729)" stroke="#B9E1CE" stroke-width="2"/>
<line y1="-1" x2="10.5325" y2="-1" transform="matrix(-0.500022 -0.866013 0.866038 -0.499978 81.8848 324.059)" stroke="#B9E1CE" stroke-width="2"/>
<line y1="-1" x2="10.5325" y2="-1" transform="matrix(-0.342038 -0.939686 0.939699 -0.342003 104.337 324.388)" stroke="#B9E1CE" stroke-width="2"/>
<line y1="-1" x2="10.5324" y2="-1" transform="matrix(-0.173658 -0.984806 0.98481 -0.173638 126.707 324.717)" stroke="#B9E1CE" stroke-width="2"/>
<line x1="148.034" y1="324.717" x2="148.034" y2="314.184" stroke="#B9E1CE" stroke-width="2"/>
<line y1="-1" x2="10.5324" y2="-1" transform="matrix(0.173657 -0.984806 0.984809 0.173639 171.361 324.717)" stroke="#B9E1CE" stroke-width="2"/>
<line y1="-1" x2="10.5325" y2="-1" transform="matrix(0.342038 -0.939686 0.939699 0.342002 170.033 342.819)" stroke="#B9E1CE" stroke-width="2"/>
<line y1="-1" x2="10.5325" y2="-1" transform="matrix(0.500023 -0.866012 0.866039 0.499977 192.482 342.49)" stroke="#B9E1CE" stroke-width="2"/>
<line y1="-1" x2="10.5327" y2="-1" transform="matrix(0.642809 -0.766026 0.766063 0.642766 215.053 342.161)" stroke="#B9E1CE" stroke-width="2"/>
<line y1="-1" x2="10.5327" y2="-1" transform="matrix(0.766063 -0.642766 0.64281 0.766026 237.779 341.503)" stroke="#B9E1CE" stroke-width="2"/>
<line y1="-1" x2="10.5327" y2="-1" transform="matrix(-0.766063 -0.642765 0.64281 -0.766026 12.8894 341.503)" stroke="#B9E1CE" stroke-width="2"/>
<line y1="-1" x2="10.5327" y2="-1" transform="matrix(-0.642809 -0.766027 0.766062 -0.642767 35.6159 342.161)" stroke="#B9E1CE" stroke-width="2"/>
<line y1="-1" x2="10.5325" y2="-1" transform="matrix(-0.500022 -0.866013 0.866038 -0.499978 58.1871 342.49)" stroke="#B9E1CE" stroke-width="2"/>
<line y1="-1" x2="10.5325" y2="-1" transform="matrix(-0.342038 -0.939686 0.939699 -0.342003 80.6362 342.819)" stroke="#B9E1CE" stroke-width="2"/>
<line y1="-1" x2="10.5324" y2="-1" transform="matrix(-0.173658 -0.984806 0.98481 -0.173638 103.006 343.149)" stroke="#B9E1CE" stroke-width="2"/>
<line x1="124.333" y1="343.149" x2="124.333" y2="332.616" stroke="#B9E1CE" stroke-width="2"/>
<line y1="-1" x2="10.5324" y2="-1" transform="matrix(0.173658 -0.984806 0.98481 0.173638 147.663 343.149)" stroke="#B9E1CE" stroke-width="2"/>
</g>
</svg>
