<svg width="48" height="48" viewBox="0 0 48 48" fill="none" xmlns="http://www.w3.org/2000/svg">
<rect width="48" height="48" rx="10" fill="#32776E"/>
<path d="M24 13C17.9346 13 13 17.9346 13 24C13 30.0654 17.9346 35 24 35C30.0655 35 35 30.0654 35 24C35 17.9346 30.0654 13 24 13ZM24 33.523C18.7491 33.523 14.477 29.2509 14.477 24C14.477 18.749 18.7491 14.477 24 14.477C29.251 14.477 33.523 18.7491 33.523 24C33.523 29.251 29.2509 33.523 24 33.523Z" fill="white"/>
<path d="M24.6262 17.2938C24.4912 17.0778 24.2546 16.9467 24 16.9467C23.7453 16.9467 23.5087 17.0778 23.3737 17.2938L19.4269 23.6085C19.2772 23.848 19.2772 24.1519 19.4269 24.3914L23.3737 30.7061C23.5087 30.9221 23.7453 31.0532 24 31.0532C24.2546 31.0532 24.4912 30.9221 24.6262 30.7061L28.573 24.3914C28.7227 24.1519 28.7227 23.848 28.573 23.6085L24.6262 17.2938ZM24 19.0786L26.8522 23.6423L24 24.7832L21.1476 23.6422L24 19.0786ZM24 28.9214L21.8772 25.5251L23.7257 26.2645C23.8137 26.2997 23.9069 26.3173 24 26.3173C24.0932 26.3173 24.1864 26.2997 24.2744 26.2645L26.1228 25.5252L24 28.9214Z" fill="white"/>
<path d="M24 13C17.9346 13 13 17.9346 13 24C13 30.0654 17.9346 35 24 35C30.0655 35 35 30.0654 35 24C35 17.9346 30.0654 13 24 13ZM24 33.523C18.7491 33.523 14.477 29.2509 14.477 24C14.477 18.749 18.7491 14.477 24 14.477C29.251 14.477 33.523 18.7491 33.523 24C33.523 29.251 29.2509 33.523 24 33.523Z" stroke="white" stroke-width="0.4"/>
<path d="M24.6262 17.2938C24.4912 17.0778 24.2546 16.9467 24 16.9467C23.7453 16.9467 23.5087 17.0778 23.3737 17.2938L19.4269 23.6085C19.2772 23.848 19.2772 24.1519 19.4269 24.3914L23.3737 30.7061C23.5087 30.9221 23.7453 31.0532 24 31.0532C24.2546 31.0532 24.4912 30.9221 24.6262 30.7061L28.573 24.3914C28.7227 24.1519 28.7227 23.848 28.573 23.6085L24.6262 17.2938ZM24 19.0786L26.8522 23.6423L24 24.7832L21.1476 23.6422L24 19.0786ZM24 28.9214L21.8772 25.5251L23.7257 26.2645C23.8137 26.2997 23.9069 26.3173 24 26.3173C24.0932 26.3173 24.1864 26.2997 24.2744 26.2645L26.1228 25.5252L24 28.9214Z" stroke="white" stroke-width="0.4"/>
</svg>
