<svg width="48" height="48" viewBox="0 0 48 48" fill="none" xmlns="http://www.w3.org/2000/svg">
<rect width="48" height="48" rx="10" fill="#32776E"/>
<path d="M29 21V19C29 18.4696 28.7893 17.9609 28.4142 17.5858C28.0391 17.2107 27.5304 17 27 17H17C16.4696 17 15.9609 17.2107 15.5858 17.5858C15.2107 17.9609 15 18.4696 15 19V25C15 25.5304 15.2107 26.0391 15.5858 26.4142C15.9609 26.7893 16.4696 27 17 27H19M21 31H31C31.5304 31 32.0391 30.7893 32.4142 30.4142C32.7893 30.0391 33 29.5304 33 29V23C33 22.4696 32.7893 21.9609 32.4142 21.5858C32.0391 21.2107 31.5304 21 31 21H21C20.4696 21 19.9609 21.2107 19.5858 21.5858C19.2107 21.9609 19 22.4696 19 23V29C19 29.5304 19.2107 30.0391 19.5858 30.4142C19.9609 30.7893 20.4696 31 21 31ZM28 26C28 26.5304 27.7893 27.0391 27.4142 27.4142C27.0391 27.7893 26.5304 28 26 28C25.4696 28 24.9609 27.7893 24.5858 27.4142C24.2107 27.0391 24 26.5304 24 26C24 25.4696 24.2107 24.9609 24.5858 24.5858C24.9609 24.2107 25.4696 24 26 24C26.5304 24 27.0391 24.2107 27.4142 24.5858C27.7893 24.9609 28 25.4696 28 26Z" stroke="white" stroke-width="2" stroke-linecap="round" stroke-linejoin="round"/>
</svg>
