<svg width="55" height="55" viewBox="0 0 55 55" fill="none" xmlns="http://www.w3.org/2000/svg">
<rect width="55" height="55" rx="27.5" fill="#F0F9F5"/>
<path d="M37.8125 28.938C34.536 30.2628 31.0342 30.9418 27.5 30.9375C23.8528 30.9375 20.3729 30.227 17.1875 28.938M27.5 27.5H27.5115M32.0833 20.625V18.3333C32.0833 17.7255 31.8419 17.1426 31.4121 16.7128C30.9823 16.2831 30.3995 16.0416 29.7917 16.0416H25.2083C24.6005 16.0416 24.0177 16.2831 23.5879 16.7128C23.1581 17.1426 22.9167 17.7255 22.9167 18.3333V20.625H32.0833ZM19.4792 36.6666H35.5208C36.1286 36.6666 36.7115 36.4252 37.1413 35.9954C37.5711 35.5656 37.8125 34.9827 37.8125 34.375V22.9166C37.8125 22.3088 37.5711 21.7259 37.1413 21.2962C36.7115 20.8664 36.1286 20.625 35.5208 20.625H19.4792C18.8714 20.625 18.2885 20.8664 17.8587 21.2962C17.4289 21.7259 17.1875 22.3088 17.1875 22.9166V34.375C17.1875 34.9827 17.4289 35.5656 17.8587 35.9954C18.2885 36.4252 18.8714 36.6666 19.4792 36.6666Z" stroke="#32776E" stroke-width="2.29167" stroke-linecap="round" stroke-linejoin="round"/>
</svg>
