<svg width="55" height="55" viewBox="0 0 55 55" fill="none" xmlns="http://www.w3.org/2000/svg">
<rect width="55" height="55" rx="27.5" fill="#F0F9F5"/>
<path d="M33.2292 36.6667H38.9584V34.375C38.9583 33.6607 38.7357 32.964 38.3214 32.382C37.9072 31.8 37.3219 31.3615 36.6469 31.1275C35.972 30.8934 35.2408 30.8755 34.5552 31.0762C33.8696 31.2769 33.2635 31.6862 32.8213 32.2472M33.2292 36.6667H21.7709M33.2292 36.6667V34.375C33.2292 33.6234 33.0848 32.9049 32.8213 32.2472M32.8213 32.2472C32.3958 31.1838 31.6614 30.2723 30.7129 29.6303C29.7645 28.9882 28.6454 28.6451 27.5 28.6451C26.3547 28.6451 25.2356 28.9882 24.2871 29.6303C23.3386 30.2723 22.6043 31.1838 22.1788 32.2472M21.7709 36.6667H16.0417V34.375C16.0417 33.6607 16.2644 32.964 16.6786 32.382C17.0929 31.8 17.6781 31.3615 18.3531 31.1275C19.0281 30.8934 19.7592 30.8755 20.4448 31.0762C21.1304 31.2769 21.7365 31.6862 22.1788 32.2472M21.7709 36.6667V34.375C21.7709 33.6234 21.9152 32.9049 22.1788 32.2472M30.9375 21.7709C30.9375 22.6826 30.5754 23.5569 29.9307 24.2016C29.286 24.8462 28.4117 25.2084 27.5 25.2084C26.5883 25.2084 25.714 24.8462 25.0693 24.2016C24.4247 23.5569 24.0625 22.6826 24.0625 21.7709C24.0625 20.8592 24.4247 19.9849 25.0693 19.3402C25.714 18.6955 26.5883 18.3334 27.5 18.3334C28.4117 18.3334 29.286 18.6955 29.9307 19.3402C30.5754 19.9849 30.9375 20.8592 30.9375 21.7709ZM37.8125 25.2084C37.8125 25.8162 37.5711 26.3991 37.1413 26.8288C36.7115 27.2586 36.1286 27.5 35.5209 27.5C34.9131 27.5 34.3302 27.2586 33.9004 26.8288C33.4706 26.3991 33.2292 25.8162 33.2292 25.2084C33.2292 24.6006 33.4706 24.0177 33.9004 23.5879C34.3302 23.1582 34.9131 22.9167 35.5209 22.9167C36.1286 22.9167 36.7115 23.1582 37.1413 23.5879C37.5711 24.0177 37.8125 24.6006 37.8125 25.2084ZM21.7709 25.2084C21.7709 25.8162 21.5294 26.3991 21.0996 26.8288C20.6699 27.2586 20.087 27.5 19.4792 27.5C18.8714 27.5 18.2885 27.2586 17.8587 26.8288C17.429 26.3991 17.1875 25.8162 17.1875 25.2084C17.1875 24.6006 17.429 24.0177 17.8587 23.5879C18.2885 23.1582 18.8714 22.9167 19.4792 22.9167C20.087 22.9167 20.6699 23.1582 21.0996 23.5879C21.5294 24.0177 21.7709 24.6006 21.7709 25.2084Z" stroke="#32776E" stroke-width="2.29167" stroke-linecap="round" stroke-linejoin="round"/>
</svg>
