<svg width="48" height="48" viewBox="0 0 48 48" fill="none" xmlns="http://www.w3.org/2000/svg">
<rect width="48" height="48" rx="10" fill="#32776E"/>
<path d="M31.3882 25.7023H29.8492V20.1184C29.8492 19.9713 29.7902 19.8303 29.6853 19.7263C29.5803 19.6223 29.438 19.5639 29.2895 19.5639C29.1411 19.5639 28.9988 19.6223 28.8938 19.7263C28.7889 19.8303 28.7299 19.9713 28.7299 20.1184V25.7023H27.1909C26.7708 25.7023 26.368 25.8677 26.071 26.162C25.7739 26.4563 25.6071 26.8554 25.6071 27.2716V28.0646H26.7264V27.2716C26.7264 27.1496 26.7753 27.0325 26.8624 26.9462C26.9495 26.8599 27.0677 26.8114 27.1909 26.8114H31.3882C31.5114 26.8114 31.6296 26.8599 31.7167 26.9462C31.8038 27.0325 31.8527 27.1496 31.8527 27.2716V31.4305C31.8527 31.5525 31.8038 31.6696 31.7167 31.7559C31.6296 31.8422 31.5114 31.8907 31.3882 31.8907H27.1909C27.0677 31.8907 26.9495 31.8422 26.8624 31.7559C26.7753 31.6696 26.7264 31.5525 26.7264 31.4305V30.6542H25.6071V31.4305C25.6071 31.6366 25.648 31.8406 25.7276 32.031C25.8072 32.2214 25.9239 32.3944 26.071 32.5401C26.218 32.6858 26.3926 32.8014 26.5848 32.8803C26.7769 32.9592 26.9829 32.9998 27.1909 32.9998H31.3882C31.5986 33.0034 31.8075 32.9656 32.0029 32.8883C32.1983 32.8111 32.3762 32.6961 32.5263 32.55C32.6763 32.404 32.7955 32.2297 32.8768 32.0375C32.9582 31.8453 33 31.6389 33 31.4305V27.2716C33 27.0632 32.9582 26.8568 32.8768 26.6646C32.7955 26.4724 32.6763 26.2981 32.5263 26.1521C32.3762 26.006 32.1983 25.891 32.0029 25.8137C31.8075 25.7365 31.5986 25.6987 31.3882 25.7023Z" fill="white"/>
<path d="M15.5838 22.2977H17.1228V27.8428C17.1228 27.9899 17.1818 28.131 17.2867 28.2349C17.3917 28.3389 17.534 28.3974 17.6825 28.3974C17.8309 28.3974 17.9733 28.3389 18.0782 28.2349C18.1832 28.131 18.2421 27.9899 18.2421 27.8428V22.2977H19.7811C20.2012 22.2977 20.604 22.1324 20.9011 21.8381C21.1981 21.5438 21.3649 21.1446 21.3649 20.7284V19.9355H20.2457V20.7284C20.2457 20.8505 20.1967 20.9676 20.1096 21.0539C20.0225 21.1402 19.9043 21.1887 19.7811 21.1887H15.5838C15.4606 21.1887 15.3425 21.1402 15.2553 21.0539C15.1682 20.9676 15.1193 20.8505 15.1193 20.7284V16.5696C15.1193 16.4475 15.1682 16.3304 15.2553 16.2441C15.3425 16.1578 15.4606 16.1093 15.5838 16.1093H19.7811C19.9043 16.1093 20.0225 16.1578 20.1096 16.2441C20.1967 16.3304 20.2457 16.4475 20.2457 16.5696V17.3459H21.3649V16.5696C21.3649 16.1534 21.1981 15.7542 20.9011 15.4599C20.604 15.1656 20.2012 15.0003 19.7811 15.0003H15.5838C15.1638 15.0003 14.7609 15.1656 14.4639 15.4599C14.1669 15.7542 14 16.1534 14 16.5696V20.7284C14 21.1446 14.1669 21.5438 14.4639 21.8381C14.7609 22.1324 15.1638 22.2977 15.5838 22.2977Z" fill="white"/>
<path d="M31.3882 15.0002H27.1908C26.7708 15.0002 26.368 15.1656 26.0709 15.4599C25.7739 15.7542 25.607 16.1533 25.607 16.5695V18.0944H19.9546C19.8062 18.0944 19.6638 18.1529 19.5589 18.2568C19.4539 18.3608 19.395 18.5019 19.395 18.6489C19.395 18.796 19.4539 18.9371 19.5589 19.041C19.6638 19.145 19.8062 19.2035 19.9546 19.2035H25.607V20.7284C25.607 21.1446 25.7739 21.5437 26.0709 21.838C26.368 22.1323 26.7708 22.2977 27.1908 22.2977H27.9911V21.1886H27.1908C27.0677 21.1886 26.9495 21.1401 26.8624 21.0538C26.7753 20.9675 26.7263 20.8504 26.7263 20.7284V16.5695C26.7263 16.4475 26.7753 16.3304 26.8624 16.2441C26.9495 16.1578 27.0677 16.1093 27.1908 16.1093H31.3882C31.5114 16.1093 31.6295 16.1578 31.7167 16.2441C31.8038 16.3304 31.8527 16.4475 31.8527 16.5695V20.7284C31.8527 20.8504 31.8038 20.9675 31.7167 21.0538C31.6295 21.1401 31.5114 21.1886 31.3882 21.1886H30.5935V22.2977H31.3882C31.5985 22.3013 31.8075 22.2635 32.0029 22.1863C32.1983 22.109 32.3762 21.994 32.5262 21.8479C32.6763 21.7019 32.7955 21.5276 32.8768 21.3354C32.9581 21.1432 33 20.9368 33 20.7284V16.5695C33 16.3611 32.9581 16.1547 32.8768 15.9625C32.7955 15.7703 32.6763 15.596 32.5262 15.45C32.3762 15.3039 32.1983 15.1889 32.0029 15.1116C31.8075 15.0344 31.5985 14.9966 31.3882 15.0002Z" fill="white"/>
<path d="M26.9446 29.9056C27.0931 29.9056 27.2354 29.8472 27.3404 29.7432C27.4453 29.6392 27.5043 29.4982 27.5043 29.3511C27.5043 29.204 27.4453 29.063 27.3404 28.959C27.2354 28.855 27.0931 28.7966 26.9446 28.7966H21.3482V27.2717C21.3482 27.0656 21.3072 26.8615 21.2276 26.6711C21.148 26.4807 21.0313 26.3077 20.8843 26.162C20.7372 26.0163 20.5626 25.9007 20.3705 25.8218C20.1783 25.743 19.9723 25.7024 19.7644 25.7024H19.0088V26.8114H19.8091C19.9323 26.8114 20.0505 26.8599 20.1376 26.9462C20.2247 27.0325 20.2736 27.1496 20.2736 27.2717V29.279C20.2705 29.3029 20.2705 29.3272 20.2736 29.3511C20.271 29.3769 20.271 29.4029 20.2736 29.4287V31.4305C20.2736 31.5526 20.2247 31.6697 20.1376 31.756C20.0505 31.8423 19.9323 31.8908 19.8091 31.8908H15.6118C15.4886 31.8908 15.3704 31.8423 15.2833 31.756C15.1962 31.6697 15.1473 31.5526 15.1473 31.4305V27.2717C15.1473 27.1496 15.1962 27.0325 15.2833 26.9462C15.3704 26.8599 15.4886 26.8114 15.6118 26.8114H16.3785V25.7024H15.5838C15.1638 25.7024 14.7609 25.8677 14.4639 26.162C14.1669 26.4563 14 26.8555 14 27.2717V31.4305C14 31.6366 14.041 31.8407 14.1206 32.0311C14.2002 32.2215 14.3168 32.3945 14.4639 32.5402C14.611 32.6859 14.7855 32.8015 14.9777 32.8803C15.1699 32.9592 15.3758 32.9998 15.5838 32.9998H19.7811C20.2012 32.9998 20.604 32.8345 20.9011 32.5402C21.1981 32.2459 21.3649 31.8467 21.3649 31.4305V29.9056H26.9446Z" fill="white"/>
<path d="M31.3882 25.7023H29.8492V20.1184C29.8492 19.9713 29.7902 19.8303 29.6853 19.7263C29.5803 19.6223 29.438 19.5639 29.2895 19.5639C29.1411 19.5639 28.9988 19.6223 28.8938 19.7263C28.7889 19.8303 28.7299 19.9713 28.7299 20.1184V25.7023H27.1909C26.7708 25.7023 26.368 25.8677 26.071 26.162C25.7739 26.4563 25.6071 26.8554 25.6071 27.2716V28.0646H26.7264V27.2716C26.7264 27.1496 26.7753 27.0325 26.8624 26.9462C26.9495 26.8599 27.0677 26.8114 27.1909 26.8114H31.3882C31.5114 26.8114 31.6296 26.8599 31.7167 26.9462C31.8038 27.0325 31.8527 27.1496 31.8527 27.2716V31.4305C31.8527 31.5525 31.8038 31.6696 31.7167 31.7559C31.6296 31.8422 31.5114 31.8907 31.3882 31.8907H27.1909C27.0677 31.8907 26.9495 31.8422 26.8624 31.7559C26.7753 31.6696 26.7264 31.5525 26.7264 31.4305V30.6542H25.6071V31.4305C25.6071 31.6366 25.648 31.8406 25.7276 32.031C25.8072 32.2214 25.9239 32.3944 26.071 32.5401C26.218 32.6858 26.3926 32.8014 26.5848 32.8803C26.7769 32.9592 26.9829 32.9998 27.1909 32.9998H31.3882C31.5986 33.0034 31.8075 32.9656 32.0029 32.8883C32.1983 32.8111 32.3762 32.6961 32.5263 32.55C32.6763 32.404 32.7955 32.2297 32.8768 32.0375C32.9582 31.8453 33 31.6389 33 31.4305V27.2716C33 27.0632 32.9582 26.8568 32.8768 26.6646C32.7955 26.4724 32.6763 26.2981 32.5263 26.1521C32.3762 26.006 32.1983 25.891 32.0029 25.8137C31.8075 25.7365 31.5986 25.6987 31.3882 25.7023Z" stroke="white" stroke-width="0.8" stroke-linecap="round" stroke-linejoin="round"/>
<path d="M15.5838 22.2977H17.1228V27.8428C17.1228 27.9899 17.1818 28.131 17.2867 28.2349C17.3917 28.3389 17.534 28.3974 17.6825 28.3974C17.8309 28.3974 17.9733 28.3389 18.0782 28.2349C18.1832 28.131 18.2421 27.9899 18.2421 27.8428V22.2977H19.7811C20.2012 22.2977 20.604 22.1324 20.9011 21.8381C21.1981 21.5438 21.3649 21.1446 21.3649 20.7284V19.9355H20.2457V20.7284C20.2457 20.8505 20.1967 20.9676 20.1096 21.0539C20.0225 21.1402 19.9043 21.1887 19.7811 21.1887H15.5838C15.4606 21.1887 15.3425 21.1402 15.2553 21.0539C15.1682 20.9676 15.1193 20.8505 15.1193 20.7284V16.5696C15.1193 16.4475 15.1682 16.3304 15.2553 16.2441C15.3425 16.1578 15.4606 16.1093 15.5838 16.1093H19.7811C19.9043 16.1093 20.0225 16.1578 20.1096 16.2441C20.1967 16.3304 20.2457 16.4475 20.2457 16.5696V17.3459H21.3649V16.5696C21.3649 16.1534 21.1981 15.7542 20.9011 15.4599C20.604 15.1656 20.2012 15.0003 19.7811 15.0003H15.5838C15.1638 15.0003 14.7609 15.1656 14.4639 15.4599C14.1669 15.7542 14 16.1534 14 16.5696V20.7284C14 21.1446 14.1669 21.5438 14.4639 21.8381C14.7609 22.1324 15.1638 22.2977 15.5838 22.2977Z" stroke="white" stroke-width="0.8" stroke-linecap="round" stroke-linejoin="round"/>
<path d="M31.3882 15.0002H27.1908C26.7708 15.0002 26.368 15.1656 26.0709 15.4599C25.7739 15.7542 25.607 16.1533 25.607 16.5695V18.0944H19.9546C19.8062 18.0944 19.6638 18.1529 19.5589 18.2568C19.4539 18.3608 19.395 18.5019 19.395 18.6489C19.395 18.796 19.4539 18.9371 19.5589 19.041C19.6638 19.145 19.8062 19.2035 19.9546 19.2035H25.607V20.7284C25.607 21.1446 25.7739 21.5437 26.0709 21.838C26.368 22.1323 26.7708 22.2977 27.1908 22.2977H27.9911V21.1886H27.1908C27.0677 21.1886 26.9495 21.1401 26.8624 21.0538C26.7753 20.9675 26.7263 20.8504 26.7263 20.7284V16.5695C26.7263 16.4475 26.7753 16.3304 26.8624 16.2441C26.9495 16.1578 27.0677 16.1093 27.1908 16.1093H31.3882C31.5114 16.1093 31.6295 16.1578 31.7167 16.2441C31.8038 16.3304 31.8527 16.4475 31.8527 16.5695V20.7284C31.8527 20.8504 31.8038 20.9675 31.7167 21.0538C31.6295 21.1401 31.5114 21.1886 31.3882 21.1886H30.5935V22.2977H31.3882C31.5985 22.3013 31.8075 22.2635 32.0029 22.1863C32.1983 22.109 32.3762 21.994 32.5262 21.8479C32.6763 21.7019 32.7955 21.5276 32.8768 21.3354C32.9581 21.1432 33 20.9368 33 20.7284V16.5695C33 16.3611 32.9581 16.1547 32.8768 15.9625C32.7955 15.7703 32.6763 15.596 32.5262 15.45C32.3762 15.3039 32.1983 15.1889 32.0029 15.1116C31.8075 15.0344 31.5985 14.9966 31.3882 15.0002Z" stroke="white" stroke-width="0.8" stroke-linecap="round" stroke-linejoin="round"/>
<path d="M26.9446 29.9056C27.0931 29.9056 27.2354 29.8472 27.3404 29.7432C27.4453 29.6392 27.5043 29.4982 27.5043 29.3511C27.5043 29.204 27.4453 29.063 27.3404 28.959C27.2354 28.855 27.0931 28.7966 26.9446 28.7966H21.3482V27.2717C21.3482 27.0656 21.3072 26.8615 21.2276 26.6711C21.148 26.4807 21.0313 26.3077 20.8843 26.162C20.7372 26.0163 20.5626 25.9007 20.3705 25.8218C20.1783 25.743 19.9723 25.7024 19.7644 25.7024H19.0088V26.8114H19.8091C19.9323 26.8114 20.0505 26.8599 20.1376 26.9462C20.2247 27.0325 20.2736 27.1496 20.2736 27.2717V29.279C20.2705 29.3029 20.2705 29.3272 20.2736 29.3511C20.271 29.3769 20.271 29.4029 20.2736 29.4287V31.4305C20.2736 31.5526 20.2247 31.6697 20.1376 31.756C20.0505 31.8423 19.9323 31.8908 19.8091 31.8908H15.6118C15.4886 31.8908 15.3704 31.8423 15.2833 31.756C15.1962 31.6697 15.1473 31.5526 15.1473 31.4305V27.2717C15.1473 27.1496 15.1962 27.0325 15.2833 26.9462C15.3704 26.8599 15.4886 26.8114 15.6118 26.8114H16.3785V25.7024H15.5838C15.1638 25.7024 14.7609 25.8677 14.4639 26.162C14.1669 26.4563 14 26.8555 14 27.2717V31.4305C14 31.6366 14.041 31.8407 14.1206 32.0311C14.2002 32.2215 14.3168 32.3945 14.4639 32.5402C14.611 32.6859 14.7855 32.8015 14.9777 32.8803C15.1699 32.9592 15.3758 32.9998 15.5838 32.9998H19.7811C20.2012 32.9998 20.604 32.8345 20.9011 32.5402C21.1981 32.2459 21.3649 31.8467 21.3649 31.4305V29.9056H26.9446Z" stroke="white" stroke-width="0.8" stroke-linecap="round" stroke-linejoin="round"/>
</svg>
