<svg width="108" height="27" viewBox="0 0 108 27" fill="none" xmlns="http://www.w3.org/2000/svg">
<path fill-rule="evenodd" clip-rule="evenodd" d="M47.1898 24.9628C48.5176 25.7783 50.0113 26.1861 51.6711 26.1861C52.9546 26.1861 54.05 25.9547 54.9574 25.4918C55.8869 25.0289 56.5287 24.3786 56.8827 23.5411H57.0155V25.7894H61.53V0H57.0155V9.5222H56.8827C56.3295 8.75072 55.6324 8.19967 54.7914 7.86904C53.9727 7.51637 52.9989 7.34003 51.8703 7.34003C50.1885 7.34003 48.6615 7.74782 47.2893 8.56337C45.9395 9.35689 44.8772 10.481 44.1026 11.9358C43.3282 13.3907 42.9408 15.0438 42.9408 16.8954C42.9408 18.6147 43.3171 20.1906 44.0694 21.6234C44.8218 23.034 45.862 24.1471 47.1898 24.9628ZM48.7831 20.5323C47.898 19.5183 47.4553 18.251 47.4553 16.7301C47.4553 15.2092 47.898 13.9527 48.7831 12.9608C49.6685 11.9468 50.8633 11.4399 52.3682 11.4399C53.8731 11.4399 55.0681 11.9468 55.9533 12.9608C56.8386 13.9527 57.2811 15.2092 57.2811 16.7301C57.2811 18.251 56.8386 19.5183 55.9533 20.5323C55.0681 21.5242 53.8731 22.0202 52.3682 22.0202C50.8633 22.0202 49.6685 21.5242 48.7831 20.5323ZM68.9177 25.0289C70.3341 25.8003 71.9053 26.1861 73.6314 26.1861C75.092 26.1861 76.4973 25.9216 77.8472 25.3926C79.2193 24.8414 80.3259 24.1032 81.1667 23.1774L78.5111 20.4993C77.8251 21.0722 77.0837 21.4801 76.287 21.7226C75.5126 21.9649 74.6273 22.0863 73.6314 22.0863C72.3036 22.0863 71.175 21.7226 70.2455 20.9952C69.316 20.2457 68.8072 19.2868 68.7185 18.1187H82.0961L82.1625 16.7631C82.1625 14.8894 81.8196 13.2363 81.1335 11.8036C80.4475 10.3708 79.4517 9.2577 78.1459 8.46418C76.8404 7.67066 75.2913 7.27391 73.4986 7.27391C71.7947 7.27391 70.2455 7.68169 68.8513 8.49724C67.4571 9.29076 66.3507 10.4149 65.5318 11.8697C64.7131 13.3024 64.3036 14.9336 64.3036 16.7631C64.3036 18.6147 64.7131 20.2567 65.5318 21.6895C66.3728 23.1221 67.5014 24.2354 68.9177 25.0289ZM76.3534 12.2995C77.1501 12.9167 77.5927 13.7322 77.6812 14.7463H68.7185C68.8956 13.6882 69.4047 12.8616 70.2455 12.2664C71.1086 11.6713 72.1708 11.3737 73.4322 11.3737C74.6052 11.3737 75.579 11.6823 76.3534 12.2995ZM84.6139 10.5141C86.7827 8.39805 89.4383 7.34003 92.5807 7.34003C95.0592 7.34003 97.0288 7.96823 98.4894 9.22463C99.95 10.481 100.68 12.3326 100.68 14.7793V25.7894H96.1658V23.1443H96.033C95.2363 24.1582 94.3401 24.9186 93.3442 25.4257C92.3483 25.9325 91.1976 26.1861 89.8919 26.1861C88.7853 26.1861 87.7674 25.9656 86.838 25.5249C85.9306 25.062 85.2114 24.4116 84.6803 23.5741C84.1492 22.7365 83.8836 21.7557 83.8836 20.6315C83.8836 18.9342 84.5475 17.5786 85.8753 16.5647C87.2252 15.5287 89.0509 15.0108 91.3525 15.0108H96.1658V14.5479C96.1658 13.4899 95.7895 12.6852 95.0371 12.1342C94.2848 11.5831 93.2999 11.3076 92.0828 11.3076C90.2902 11.3076 88.708 11.9468 87.3359 13.2253L84.6139 10.5141ZM88.4645 20.4331C88.4645 21.0061 88.6969 21.5021 89.1616 21.921C89.6484 22.3397 90.3898 22.5492 91.3857 22.5492C92.3595 22.5492 93.2003 22.3617 93.9085 21.9871C94.6388 21.5903 95.192 21.0833 95.5683 20.4662C95.9666 19.8269 96.1658 19.1546 96.1658 18.4493V18.3171H91.2529C90.235 18.3171 89.5156 18.5264 89.0952 18.9453C88.6748 19.3421 88.4645 19.838 88.4645 20.4331ZM103.454 0.0258284H108V25.7863H103.454V0.0258284ZM35.3331 12.1855L37.8206 15.9367L43.293 7.80056L38.2423 7.79856L35.3331 12.1855ZM37.8213 17.1758L35.3331 20.9233L38.5317 25.7406H43.6082L37.8213 17.1758Z" fill="white"/>
<path fill-rule="evenodd" clip-rule="evenodd" d="M22.5584 8.20046H18.0439V25.7234H22.5584V8.20046ZM18.409 0.831603C17.9 1.33858 17.6455 1.95575 17.6455 2.68314C17.6455 3.41053 17.9 4.03873 18.409 4.56774C18.9401 5.07472 19.5708 5.3282 20.3011 5.3282C21.0314 5.3282 21.651 5.07472 22.1601 4.56774C22.6912 4.03873 22.9567 3.41053 22.9567 2.68314C22.9567 1.95575 22.6912 1.33858 22.1601 0.831603C21.651 0.302592 21.0314 0.0380859 20.3011 0.0380859C19.5708 0.0380859 18.9401 0.302592 18.409 0.831603ZM15.2697 0.926553H0V25.7208H4.64731V16.4001H14.4731V12.3003H4.64731V5.02639H15.2697V0.926553ZM24.8729 7.80066L30.7625 16.5573L24.5577 25.7407H29.6342L35.7318 16.5573L29.9236 7.79866L24.8729 7.80066Z" fill="white"/>
</svg>
